<mxfile host="65bd71144e">
    <diagram id="23RsAKBHHCMQUYV24XLB" name="Страница 1">
        <mxGraphModel dx="591" dy="475" grid="1" gridSize="10" guides="1" tooltips="1" connect="1" arrows="1" fold="1" page="1" pageScale="1" pageWidth="827" pageHeight="1169" background="none" math="0" shadow="0">
            <root>
                <mxCell id="0"/>
                <mxCell id="1" parent="0"/>
                <mxCell id="TxDnFdC1n9ke3_59rP8P-7" value="" style="edgeStyle=orthogonalEdgeStyle;rounded=0;orthogonalLoop=1;jettySize=auto;html=1;" parent="1" source="k90CZVxUs1MQgBNPutUz-1" target="k90CZVxUs1MQgBNPutUz-2" edge="1">
                    <mxGeometry relative="1" as="geometry"/>
                </mxCell>
                <mxCell id="k90CZVxUs1MQgBNPutUz-1" value="&lt;font style=&quot;vertical-align: inherit;&quot;&gt;&lt;font style=&quot;vertical-align: inherit;&quot;&gt;start&lt;br&gt;&lt;/font&gt;&lt;/font&gt;" style="ellipse;whiteSpace=wrap;html=1;" parent="1" vertex="1">
                    <mxGeometry x="276" width="164" height="50" as="geometry"/>
                </mxCell>
                <mxCell id="k90CZVxUs1MQgBNPutUz-2" value="&lt;font style=&quot;vertical-align: inherit&quot;&gt;&lt;font style=&quot;vertical-align: inherit&quot; color=&quot;#ffffff&quot;&gt;&lt;div style=&quot;font-family: &amp;#34;consolas&amp;#34; , &amp;#34;courier new&amp;#34; , monospace ; font-size: 14px ; line-height: 19px ; background-color: rgb(51 , 51 , 51)&quot;&gt;&lt;div&gt;array 1&lt;/div&gt;&lt;div&gt;array 2&lt;/div&gt;&lt;div&gt;count = 0&lt;/div&gt;&lt;div&gt;i=0&amp;nbsp;&lt;/div&gt;&lt;/div&gt;&lt;/font&gt;&lt;/font&gt;" style="shape=parallelogram;perimeter=parallelogramPerimeter;whiteSpace=wrap;html=1;fixedSize=1;fillColor=#333333;" parent="1" vertex="1">
                    <mxGeometry x="243" y="70" width="230" height="100" as="geometry"/>
                </mxCell>
                <mxCell id="TxDnFdC1n9ke3_59rP8P-3" value="" style="edgeStyle=orthogonalEdgeStyle;rounded=0;orthogonalLoop=1;jettySize=auto;html=1;" parent="1" source="TxDnFdC1n9ke3_59rP8P-1" target="TxDnFdC1n9ke3_59rP8P-2" edge="1">
                    <mxGeometry relative="1" as="geometry"/>
                </mxCell>
                <mxCell id="TxDnFdC1n9ke3_59rP8P-49" value="" style="edgeStyle=orthogonalEdgeStyle;rounded=0;orthogonalLoop=1;jettySize=auto;html=1;fontSize=13;fontColor=#000000;" parent="1" source="TxDnFdC1n9ke3_59rP8P-1" edge="1">
                    <mxGeometry relative="1" as="geometry">
                        <mxPoint x="364" y="222.5" as="targetPoint"/>
                    </mxGeometry>
                </mxCell>
                <mxCell id="7" style="edgeStyle=none;html=1;fontColor=#FFFFFF;" edge="1" parent="1" source="TxDnFdC1n9ke3_59rP8P-1">
                    <mxGeometry relative="1" as="geometry">
                        <mxPoint x="190" y="332.5" as="targetPoint"/>
                    </mxGeometry>
                </mxCell>
                <mxCell id="TxDnFdC1n9ke3_59rP8P-1" value="&lt;font size=&quot;1&quot; face=&quot;consolas, courier new, monospace&quot; color=&quot;#ffffff&quot;&gt;&lt;span style=&quot;font-size: 13px ; background-color: rgb(51 , 51 , 51)&quot;&gt;array1[i].Length &amp;lt;= 3&lt;/span&gt;&lt;/font&gt;" style="rhombus;whiteSpace=wrap;html=1;" parent="1" vertex="1">
                    <mxGeometry x="263" y="290" width="190" height="85" as="geometry"/>
                </mxCell>
                <mxCell id="5" style="edgeStyle=none;html=1;entryX=0;entryY=0.5;entryDx=0;entryDy=0;fontColor=#FFFFFF;" edge="1" parent="1" source="TxDnFdC1n9ke3_59rP8P-2" target="TxDnFdC1n9ke3_59rP8P-47">
                    <mxGeometry relative="1" as="geometry">
                        <Array as="points">
                            <mxPoint x="188" y="440"/>
                        </Array>
                    </mxGeometry>
                </mxCell>
                <mxCell id="TxDnFdC1n9ke3_59rP8P-2" value="&lt;div style=&quot;font-family: consolas, &amp;quot;courier new&amp;quot;, monospace; font-size: 13px;&quot;&gt;&lt;div&gt;array2[count] = array1[i];&lt;/div&gt;&lt;div&gt;&amp;nbsp; &amp;nbsp; &amp;nbsp; &amp;nbsp; count++;&lt;/div&gt;&lt;/div&gt;" style="whiteSpace=wrap;html=1;align=center;" parent="1" vertex="1">
                    <mxGeometry x="241.5" y="410" width="233" height="60" as="geometry"/>
                </mxCell>
                <mxCell id="TxDnFdC1n9ke3_59rP8P-8" value="yes" style="text;html=1;align=center;verticalAlign=middle;resizable=0;points=[];autosize=1;strokeColor=none;fillColor=none;" parent="1" vertex="1">
                    <mxGeometry x="362" y="375" width="40" height="30" as="geometry"/>
                </mxCell>
                <mxCell id="TxDnFdC1n9ke3_59rP8P-37" value="" style="edgeStyle=orthogonalEdgeStyle;rounded=0;orthogonalLoop=1;jettySize=auto;html=1;fontColor=#000000;" parent="1" source="TxDnFdC1n9ke3_59rP8P-16" target="TxDnFdC1n9ke3_59rP8P-36" edge="1">
                    <mxGeometry relative="1" as="geometry">
                        <Array as="points">
                            <mxPoint x="640" y="280"/>
                            <mxPoint x="640" y="280"/>
                        </Array>
                    </mxGeometry>
                </mxCell>
                <mxCell id="TxDnFdC1n9ke3_59rP8P-16" value="&lt;font style=&quot;font-size: 13px ; background-color: rgb(51 , 51 , 51)&quot; color=&quot;#ffffff&quot;&gt;Printеarray[i]&lt;/font&gt;" style="shape=document;whiteSpace=wrap;html=1;boundedLbl=1;fontColor=#000000;labelBackgroundColor=#FFFFFF;" parent="1" vertex="1">
                    <mxGeometry x="580" y="200" width="120" height="60" as="geometry"/>
                </mxCell>
                <mxCell id="TxDnFdC1n9ke3_59rP8P-27" value="" style="edgeStyle=orthogonalEdgeStyle;rounded=0;orthogonalLoop=1;jettySize=auto;html=1;endArrow=none;entryX=0.5;entryY=0;entryDx=0;entryDy=0;" parent="1" source="k90CZVxUs1MQgBNPutUz-2" target="TxDnFdC1n9ke3_59rP8P-47" edge="1">
                    <mxGeometry relative="1" as="geometry">
                        <mxPoint x="364" y="190" as="sourcePoint"/>
                        <mxPoint x="364" y="212.5" as="targetPoint"/>
                    </mxGeometry>
                </mxCell>
                <mxCell id="TxDnFdC1n9ke3_59rP8P-36" value="&lt;font color=&quot;#ffffff&quot; style=&quot;background-color: rgb(51 , 51 , 51)&quot;&gt;end&lt;/font&gt;" style="ellipse;whiteSpace=wrap;html=1;fontColor=#000000;labelBackgroundColor=#FFFFFF;" parent="1" vertex="1">
                    <mxGeometry x="580" y="350" width="120" height="60" as="geometry"/>
                </mxCell>
                <mxCell id="TxDnFdC1n9ke3_59rP8P-50" value="" style="edgeStyle=orthogonalEdgeStyle;rounded=0;orthogonalLoop=1;jettySize=auto;html=1;fontSize=13;fontColor=#000000;" parent="1" source="TxDnFdC1n9ke3_59rP8P-47" target="TxDnFdC1n9ke3_59rP8P-16" edge="1">
                    <mxGeometry relative="1" as="geometry"/>
                </mxCell>
                <mxCell id="TxDnFdC1n9ke3_59rP8P-47" value="&lt;font color=&quot;#ffffff&quot; style=&quot;background-color: rgb(51 , 51 , 51)&quot;&gt;&amp;nbsp;i = 0; i &amp;lt; array1.Length; i++&lt;/font&gt;" style="shape=hexagon;perimeter=hexagonPerimeter2;whiteSpace=wrap;html=1;fixedSize=1;labelBackgroundColor=#FFFFFF;fontSize=13;fontColor=#000000;" parent="1" vertex="1">
                    <mxGeometry x="188" y="200" width="340" height="60" as="geometry"/>
                </mxCell>
                <mxCell id="TxDnFdC1n9ke3_59rP8P-53" value="&lt;font color=&quot;#ffffff&quot;&gt;no&lt;/font&gt;" style="text;html=1;align=center;verticalAlign=middle;resizable=0;points=[];autosize=1;strokeColor=none;fillColor=none;fontSize=13;fontColor=#000000;" parent="1" vertex="1">
                    <mxGeometry x="379" y="265" width="30" height="20" as="geometry"/>
                </mxCell>
                <mxCell id="TxDnFdC1n9ke3_59rP8P-54" value="&lt;font color=&quot;#ffffff&quot;&gt;no&lt;/font&gt;" style="text;html=1;align=center;verticalAlign=middle;resizable=0;points=[];autosize=1;strokeColor=none;fillColor=none;fontSize=13;fontColor=#000000;" parent="1" vertex="1">
                    <mxGeometry x="193" y="410" width="30" height="20" as="geometry"/>
                </mxCell>
                <mxCell id="TxDnFdC1n9ke3_59rP8P-55" value="&lt;font color=&quot;#ffffff&quot;&gt;no&lt;/font&gt;" style="text;html=1;align=center;verticalAlign=middle;resizable=0;points=[];autosize=1;strokeColor=none;fillColor=none;fontSize=13;fontColor=#000000;" parent="1" vertex="1">
                    <mxGeometry x="185" y="305" width="30" height="20" as="geometry"/>
                </mxCell>
                <mxCell id="TxDnFdC1n9ke3_59rP8P-56" value="&lt;font color=&quot;#ffffff&quot;&gt;yes&lt;/font&gt;" style="text;html=1;align=center;verticalAlign=middle;resizable=0;points=[];autosize=1;strokeColor=none;fillColor=none;fontSize=13;fontColor=#000000;" parent="1" vertex="1">
                    <mxGeometry x="520" y="205" width="40" height="20" as="geometry"/>
                </mxCell>
            </root>
        </mxGraphModel>
    </diagram>
</mxfile>